<?xml version="1.0" standalone="no"?>
<!DOCTYPE svg PUBLIC "-//W3C//DTD SVG 20010904//EN"
 "http://www.w3.org/TR/2001/REC-SVG-20010904/DTD/svg10.dtd">
<svg version="1.0" xmlns="http://www.w3.org/2000/svg"
 width="425.000000pt" height="425.000000pt" viewBox="0 0 425.000000 425.000000"
 preserveAspectRatio="xMidYMid meet">
<metadata>
Created by potrace 1.11, written by Peter Selinger 2001-2013
</metadata>
<g transform="translate(0.000000,425.000000) scale(0.100000,-0.100000)"
fill="#000000" stroke="none">
<path d="M0 2125 l0 -2125 2125 0 2125 0 0 2125 0 2125 -2125 0 -2125 0 0
-2125z m1197 1637 c6 -4 50 -86 96 -182 166 -340 258 -474 313 -453 6 2 21 22
33 43 12 22 26 40 31 40 15 0 32 -40 32 -75 0 -106 -116 -171 -203 -112 -74
49 -207 269 -305 502 -47 114 -58 126 -49 55 11 -90 51 -247 119 -468 98 -316
107 -385 53 -410 -25 -12 -32 -11 -71 12 -59 34 -157 142 -229 250 -58 89
-177 319 -177 344 0 6 -5 12 -11 12 -17 0 -5 -127 21 -230 12 -47 48 -174 80
-282 33 -109 64 -225 71 -258 15 -76 7 -154 -18 -188 -42 -56 -110 -53 -85 3
29 64 8 191 -81 490 -96 322 -101 510 -16 594 59 59 68 51 162 -141 47 -95
111 -211 142 -258 62 -91 135 -183 141 -177 2 2 -25 96 -61 208 -110 341 -133
472 -101 581 22 75 76 124 113 100z m943 -537 c0 -442 -2 -505 -15 -505 -13 0
-15 62 -15 498 0 274 3 502 7 505 3 4 10 7 15 7 4 0 8 -227 8 -505z m1110 254
c134 -21 241 -95 256 -177 17 -87 -58 -187 -162 -218 -70 -20 -155 -15 -184
11 -23 21 -28 89 -7 102 6 4 44 6 83 4 178 -7 258 85 129 149 -43 21 -63 25
-140 24 -106 -1 -190 -21 -300 -73 -136 -64 -239 -164 -252 -245 -11 -66 69
-123 200 -142 54 -7 62 -29 26 -65 -58 -58 -253 37 -317 156 -27 49 -22 141
10 195 73 124 263 241 445 274 97 18 131 19 213 5z m-1096 -1025 c19 -18 21
-55 4 -72 -17 -17 -54 -15 -72 4 -21 21 -20 40 4 64 24 24 43 25 64 4z m-294
-319 c0 -13 -92 -15 -765 -15 -421 0 -765 4 -765 8 0 5 3 12 7 15 3 4 348 7
765 7 667 0 758 -2 758 -15z m2050 0 c0 -13 -92 -15 -765 -15 -421 0 -765 4
-765 8 0 5 3 12 7 15 3 4 348 7 765 7 667 0 758 -2 758 -15z m-713 -246 c8 -8
7 -20 -3 -45 -8 -18 -14 -50 -14 -71 0 -52 39 -217 94 -400 24 -83 52 -188 60
-233 18 -94 21 -238 5 -293 -15 -54 -64 -107 -99 -107 -25 0 -32 7 -55 58
-112 239 -216 415 -303 512 l-41 45 18 -60 c10 -33 41 -132 70 -221 86 -268
109 -423 81 -526 -15 -53 -56 -98 -89 -98 -24 0 -33 14 -120 188 -211 424
-289 516 -346 410 -22 -42 -39 -48 -55 -19 -44 84 50 205 145 187 86 -16 211
-198 340 -491 31 -71 59 -132 62 -135 3 -3 3 25 -1 63 -8 80 -41 208 -129 497
-76 250 -86 309 -63 345 35 53 101 23 208 -94 98 -105 201 -277 296 -491 9
-22 11 -16 11 40 1 76 -24 185 -108 466 -96 323 -101 399 -30 458 33 28 49 32
66 15z m-1067 -524 c0 -442 -2 -505 -15 -505 -13 0 -15 62 -15 498 0 274 3
502 7 505 3 4 10 7 15 7 4 0 8 -227 8 -505z m-783 5 c53 -23 139 -103 164
-152 44 -87 10 -200 -86 -285 -148 -132 -336 -200 -525 -190 -191 10 -310 91
-310 210 0 80 44 138 135 178 64 29 159 32 198 6 32 -21 44 -59 28 -94 -11
-24 -14 -25 -70 -18 -83 10 -161 -8 -196 -45 -25 -26 -27 -33 -17 -54 31 -69
191 -95 343 -57 163 41 299 122 370 220 49 68 53 115 12 153 -39 36 -80 55
-138 63 -96 13 -106 25 -59 72 22 22 31 24 67 19 23 -4 60 -15 84 -26z m797
-776 c19 -18 21 -55 4 -72 -27 -27 -88 -3 -88 34 0 18 36 54 54 54 8 0 22 -7
30 -16z"/>
</g>
</svg>
